# Tiled2Unity generated file. Do not modify by hand.
# Wavefront file for 'house_mesh_0003.obj'

# Vertices (Count = 44)
v -128 -80 0
v -144 -80 0
v -144 -64 0
v -128 -64 0
v -96 -80 0
v -112 -80 0
v -112 -64 0
v -96 -64 0
v -64 -80 0
v -80 -80 0
v -80 -64 0
v -64 -64 0
v -48 -80 0
v -64 -80 0
v -64 -64 0
v -48 -64 0
v -64 -96 0
v -80 -96 0
v -80 -80 0
v -64 -80 0
v -48 -96 0
v -64 -96 0
v -64 -80 0
v -48 -80 0
v -160 -112 0
v -176 -112 0
v -176 -96 0
v -160 -96 0
v -96 -144 0
v -112 -144 0
v -112 -128 0
v -96 -128 0
v -80 -144 0
v -96 -144 0
v -96 -128 0
v -80 -128 0
v -64 -144 0
v -80 -144 0
v -80 -128 0
v -64 -128 0
v -48 -144 0
v -64 -144 0
v -64 -128 0
v -48 -128 0

# Texture cooridinates (Count = 40)
vt 0.7376033 0.9695817
vt 0.7541322 0.9695817
vt 0.7541322 1
vt 0.7376033 1
vt 0.9132231 0.6463878
vt 0.9297521 0.6463878
vt 0.9297521 0.6768061
vt 0.9132231 0.6768061
vt 0.2107438 0.7756654
vt 0.2272727 0.7756654
vt 0.2272727 0.8060837
vt 0.2107438 0.8060837
vt 0.1756198 0.8079848
vt 0.1921488 0.8079848
vt 0.1921488 0.838403
vt 0.1756198 0.838403
vt 0.2283058 0.7756654
vt 0.2448347 0.7756654
vt 0.2448347 0.8060837
vt 0.2283058 0.8060837
vt 0.2107438 0.8079848
vt 0.2272727 0.8079848
vt 0.2272727 0.838403
vt 0.2107438 0.838403
vt 0.2458678 0.8726236
vt 0.2623967 0.8726236
vt 0.2623967 0.9030418
vt 0.2458678 0.9030418
vt 0.3863636 0.8079848
vt 0.4028926 0.8079848
vt 0.4028926 0.838403
vt 0.3863636 0.838403
vt 0.3336777 0.7756654
vt 0.3502066 0.7756654
vt 0.3502066 0.8060837
vt 0.3336777 0.8060837
vt 0.3688017 0.8079848
vt 0.3853306 0.8079848
vt 0.3853306 0.838403
vt 0.3688017 0.838403

# Normal
vn 0 0 -1

# Mesh description
g house_mesh_0003

# Faces
f 1/1/1 2/2/1 3/3/1 4/4/1
f 5/5/1 6/6/1 7/7/1 8/8/1
f 9/9/1 10/10/1 11/11/1 12/12/1
f 13/13/1 14/14/1 15/15/1 16/16/1
f 17/17/1 18/18/1 19/19/1 20/20/1
f 21/21/1 22/22/1 23/23/1 24/24/1
f 25/25/1 26/26/1 27/27/1 28/28/1
f 29/29/1 30/30/1 31/31/1 32/32/1
f 33/33/1 34/34/1 35/35/1 36/36/1
f 37/33/1 38/34/1 39/35/1 40/36/1
f 41/37/1 42/38/1 43/39/1 44/40/1

