# Tiled2Unity generated file. Do not modify by hand.
# Wavefront file for 'ActionRpgMapTest_mesh_0003.obj'

# Vertices (Count = 32)
v -784 -656 0
v -800 -656 0
v -800 -640 0
v -784 -640 0
v -576 -656 0
v -592 -656 0
v -592 -640 0
v -576 -640 0
v -784 -672 0
v -800 -672 0
v -800 -656 0
v -784 -656 0
v -656 -672 0
v -672 -672 0
v -672 -656 0
v -656 -656 0
v -576 -672 0
v -592 -672 0
v -592 -656 0
v -576 -656 0
v -512 -672 0
v -528 -672 0
v -528 -656 0
v -512 -656 0
v -656 -688 0
v -672 -688 0
v -672 -672 0
v -656 -672 0
v -512 -688 0
v -528 -688 0
v -528 -672 0
v -512 -672 0

# Texture cooridinates (Count = 8)
vt 0.3161157 0.6463878
vt 0.3326446 0.6463878
vt 0.3326446 0.6768061
vt 0.3161157 0.6768061
vt 0.3161157 0.6140684
vt 0.3326446 0.6140684
vt 0.3326446 0.6444867
vt 0.3161157 0.6444867

# Normal
vn 0 0 -1

# Mesh description
g ActionRpgMapTest_mesh_0003

# Faces
f 1/1/1 2/2/1 3/3/1 4/4/1
f 5/1/1 6/2/1 7/3/1 8/4/1
f 9/5/1 10/6/1 11/7/1 12/8/1
f 13/1/1 14/2/1 15/3/1 16/4/1
f 17/5/1 18/6/1 19/7/1 20/8/1
f 21/1/1 22/2/1 23/3/1 24/4/1
f 25/5/1 26/6/1 27/7/1 28/8/1
f 29/5/1 30/6/1 31/7/1 32/8/1

